<?xml version="1.0" encoding="UTF-8"?>
<svg version="1.1" viewBox="0 0 2048 517" width="677" height="171" xmlns="http://www.w3.org/2000/svg">
<path transform="translate(221,30)" d="m0 0h39l18 3 18 6 16 7 18 11 13 11 8 7 12 14 10 15 8 15 8 22 3 14 1 7v41l-3 16h-3l-11-9-15-10-13-8-14-8-23-10-22-7-20-4-17-2h-23l-24 3-24 6-21 8-28 14-27 18-12 9h-2l-3-16-1-15v-15l2-19 5-19 6-16 9-17 10-14 12-13 12-12 16-11 12-7 19-8 18-5z" fill="#0A051B"/>
<path transform="translate(225,191)" d="m0 0h29l21 3 26 8 24 11 14 8 19 13 20 16-2 5-8 14-11 14-13 14-9 7-18 12-16 8-17 6-11 3h-3v122l-1 1h-57l-1-123-12-2-22-8-17-9-14-10-10-9-15-15-12-17-6-12 1-3 6-4 14-11 18-12 16-9 19-9 22-7 19-4z" fill="#09051B"/>
<path transform="translate(959,284)" d="m0 0h83l10 2 9 6 5 7 2 6v139l-3 8-6 8-9 5-6 1h-84l-1-1v-17l1-1 84-1 4-3 1-4v-24l-93-1-10-5-7-8-3-7-1-6v-78l2-8 4-7 9-8zm5 18-6 2-3 3-1 3v78l3 7 3 1h83l5-3 2-4v-78l-3-6-2-2-8-1z" fill="#EC0E49"/>
<path transform="translate(1857,284)" d="m0 0h80l11 2 8 6 6 9 2 7v129l-2 13-6 8-6 5-5 2-6 1h-83l-1-8v-9l1-2h20l64-1 4-4 1-4v-23l-92-1-10-4-7-7-3-5-2-11v-79l4-11 6-7 10-5zm5 18-9 2-3 4v83l3 4 12 2h66l10-2 4-4 1-3v-75l-2-7-3-3-16-1z" fill="#0D051B"/>
<path transform="translate(394,252)" d="m0 0h24l5 4 9 11 9 10 9 11 11 13 9 11 11 13 3 4v2l4-1 7-7 11-14 9-10 8-10 12-14 9-11 8-10 2-2h24l1 1v161h-19v-135l1-4h-2v2h-2l-2 4-11 12-8 10-11 13-9 11-22 26-6 7-4-1-9-11-12-14-9-11-9-10-9-11-11-13-9-11-3-3v138l-1 1h-18z" fill="#EE0D48"/>
<path transform="translate(1097,284)" d="m0 0h107l12 3 6 4 6 9 2 5 1 18v90l-1 1h-112l-8-3-9-9-4-11v-51h114l-1-31-2-4-2-1-9-1h-98l-2-1zm100 74-81 1-1 25 1 7 6 5h89v-38z" fill="#ED0D48"/>
<path transform="translate(612,284)" d="m0 0h106l10 2 8 6 6 8 2 8v106h-113l-8-4-6-5-5-10-1-5v-50l114-1-1-30-2-4-2-1-24-1h-83l-2-1v-17zm19 74-2 1v26l3 9 3 2h91v-37l-1-1z" fill="#EC0D47"/>
<path transform="translate(1256,252)" d="m0 0h10l8 1 1 71h129l-1-19v-29l1-24h11l7 1v161h-18l-1-40v-30l-24-1h-105v71h-18z" fill="#0E061C"/>
<path transform="translate(1695,284)" d="m0 0h80l10 2 8 5 5 6 4 10v83l-2 8-4 6-8 7-9 3h-89l-10-5-8-9-3-9v-84l3-8 6-8 8-5zm12 18-15 1-3 3-1 2-1 27v52l2 6 4 3 5 1h36l44-1 4-4 2-9v-71l-3-7-2-2-21-1z" fill="#0C051B"/>
<path transform="translate(1508,284)" d="m0 0h100l2 2 15 1 7 4 7 10 1 3 1 13v96l-1 1h-18l-1-106-4-4-2-1h-64l-20 1-3 2-1 3-1 105h-18l-1-2v-127z" fill="#0D061C"/>
<path transform="translate(773,284)" d="m0 0h107l12 3 8 7 4 6 2 7v107h-18l-1-101-2-7-3-2-12-1h-62l-12 1-3 4-1 16v89l-1 1h-18z" fill="#EC0D47"/>
<path transform="translate(1455,284)" d="m0 0h18l1 1-1 129h-18z" fill="#0A051B"/>
<path transform="translate(1256,292)" d="m0 0h2l2 12 1 12 2 68 1 18h3l1-4v-14l1-4v-11l1-24 3-5 7-3h19l8 1 9 1h87l2 1v18l-1 16h-1v-30l-24-1h-105v71h-18z" fill="#120917"/>
<path transform="translate(1420,253)" d="m0 0h2v161h-18v-56h2v52l1 1h10l1-62 1-95z" fill="#070415"/>
<path transform="translate(1456,303)" d="m0 0h1l2 62v35l-1 7 2 5 6-2 2 1 1-5 1-22v-26l3-4v60h-18v-86z" fill="#070412"/>
<path transform="translate(1958,298)" d="m0 0 3 1 3 9v129l-1 10-3 1v-115l-1-30z" fill="#420617"/>
<path transform="translate(1638,304)" d="m0 0h2l1 13v96h-6l2-1v-35l-1-8 1-4v-6l-1-1v-6l1-4-1-7v-30z" fill="#340A18"/>
<path transform="translate(1526,302)" d="m0 0h4l-2 4-2 6-1 101h-6l2-1 1-104 2-5z" fill="#04020A"/>
<path transform="translate(1420,253)" d="m0 0h1v160l-3-1 1-49 1-2h-2l1-107z" fill="#030207"/>
<path transform="translate(1455,241)" d="m0 0h18v18h-18z" fill="#06030F"/>
<path transform="translate(1690,411)" d="m0 0h94v2l-5 1h-89z" fill="#0A040D"/>
<path transform="translate(1879,299)" d="m0 0 65 1 3 2v29h-1l-1-18-2-7-2-2-16-1h-63l-9 1-2-2 3-2z" fill="#160B12"/>
<path transform="translate(1671,302)" d="m0 0h1v94l-2-1-1-4v-84z" fill="#08020C"/>
<path transform="translate(1472,354)" d="m0 0h1v60h-17v-7h2l2 5 6-2 2 1 1-5 1-22v-26z" fill="#070410"/>
<path transform="translate(1623,333)" d="m0 0h1l1 19 1 46 2 10 1 1h6l1-9 2 1v8l-1 3-2 1h-12z" fill="#070410"/>
<path transform="translate(1857,284)" d="m0 0h80l7 1 1 2h-30l-61-1z" fill="#0E0310"/>
<path transform="translate(1845,409)" d="m0 0 12 1 49 2 37 1v1h-90l-8-3z" fill="#040104"/>
<path transform="translate(1801,307)" d="m0 0h1v83l-2 8-4 6-8 7-3 1 2-4 6-7 4-8 2-10 1-1z" fill="#160417"/>
<path transform="translate(1690,299)" d="m0 0h31l1 1h9l9-1h14l11 1-1 2-6 1-68-1h-3v-2z" fill="#04020A"/>
<path transform="translate(1791,291)" d="m0 0 4 2 5 8 1 2v79h-1l-1-20v-32l-2-10-1-15-2-9z" fill="#090411"/>
<path transform="translate(1851,303)" d="m0 0h2l-2 5-1 8-1 71h-1l-1-15-1-63 3-5z" fill="#030104"/>
<path transform="translate(344,292)" d="m0 0m-1 1m-1 1m-1 1 2 2-12 10-16 10-12 6h-2l2-4 9-5 8-5 7-4 4-2v-2l8-4z" fill="#0F0413"/>
<path transform="translate(1472,354)" d="m0 0h1v59h-1l-1-28-1-1v-26z" fill="#040209"/>
<path transform="translate(1472,303)" d="m0 0 2 2-1 49-2 2v-52z" fill="#090612"/>
<path transform="translate(1566,285)" d="m0 0h43l4 4-10 2-6-2v-2l-31-1z" fill="#070410"/>
<path transform="translate(1508,326)" d="m0 0h1l1 46 1 8-1 16-2 2z" fill="#070410"/>
<path transform="translate(391,165)" d="m0 0h1l1 6v22l-2 4-2-9v-18z" fill="#070410"/>
<path transform="translate(1272,259)" d="m0 0h1v66l-2-1-1-9 1-14z" fill="#070410"/>
<path transform="translate(1831,378)" d="m0 0 1 3h2l3 17 4 7 6 3-4 2-7-7-3-5-2-11z" fill="#2A0B1D"/>
<path transform="translate(1740,299)" d="m0 0h14l11 1-1 2-6 1-27-1 1-2z" fill="#09070B"/>
<path transform="translate(369,262)" d="m0 0 1 4-12 16h-3l2-6 10-13z" fill="#180717"/>
<path transform="translate(1765,300)" d="m0 0h14l5 2 1 6h-3l-3-4-18-1z" fill="#39232B"/>
<path transform="translate(1690,301)" d="m0 0 17 1v1l-17 1-2 5-2 4-3-1v-7l5-3z" fill="#100412"/>
<path transform="translate(1672,390)" d="m0 0h2l1 9 3 1 5 7v2l-4-1-7-8-1-4z" fill="#150414"/>
<path transform="translate(1508,284)" d="m0 0 5 1-2 6 1 5-1 2-1 10-2 1z" fill="#070410"/>
<path transform="translate(111,263)" d="m0 0 5 5 8 9 3 5v2l-4-2-10-13-2-3z" fill="#150817"/>
<path transform="translate(1455,241)" d="m0 0h18v1l-10 2v3h-3l-1-5h-3v17h-1z" fill="#11051C"/>
<path transform="translate(1850,391)" d="m0 0 3 3 12 2 17 1v1h-30l-3-5z" fill="#27091B"/>
<path transform="translate(89,165)" d="m0 0h1v20l-3 3v-15l1-7z" fill="#451628"/>
<path transform="translate(1686,390)" d="m0 0 3 1v2l9 3-1 3-9-1-2-3z" fill="#1E0918"/>
<path transform="translate(1847,372)" d="m0 0h1v15h2v7l2 3-4-1-1-4-1-19z" fill="#060310"/>
<path transform="translate(1943,412)" d="m0 0 5 1v16l-2-1-1-13-2-1z" fill="#0D0A16"/>
<path transform="translate(98,211)" d="m0 0h3l-1 3-7 5h-2l-1-5 5-1h2z" fill="#251122"/>
<path transform="translate(1471,285)" d="m0 0h3v16l-2 2-1-7z" fill="#6D2E45"/>
<path transform="translate(1526,302)" d="m0 0h4l-2 4-2 6h-2l-1-8z" fill="#0B030C"/>
<path transform="translate(1946,391)" d="m0 0h1v6l-1 1h-9l2-3 4-1z" fill="#04020A"/>
<path transform="translate(1623,403)" d="m0 0 2 4v2h2v2l5 1v1h-9z" fill="#020103"/>
<path transform="translate(1690,301)" d="m0 0 17 1v1l-19 1z" fill="#744252"/>
<path transform="translate(1945,438)" d="m0 0 1 2 2 1h-2v7h-5v-3l3-3z" fill="#260C18"/>
<path transform="translate(118,89)" d="m0 0h3l-2 4-3 3-1 3-4 2 2-5z" fill="#290518"/>
</svg>
